<svg xmlns="http://www.w3.org/2000/svg" width="360" height="360" viewBox="0 0 360 360">
<g>
<path d="M 0.00 0.00 L 360.00 0.00 L 360.00 360.00 L 0.00 360.00 ZM 165.50 257.97 C171.28,259.14 189.82,259.12 194.50,257.95 C196.70,257.39 199.35,256.74 200.40,256.50 C205.29,255.36 210.14,253.43 217.50,249.69 C223.81,246.49 227.64,243.50 235.61,235.56 C244.39,226.82 246.33,224.25 250.37,216.00 C256.66,203.14 259.00,193.40 259.00,180.03 C259.00,149.37 242.65,122.87 215.50,109.52 C210.55,107.08 203.57,104.43 200.00,103.62 C156.45,93.80 115.07,117.99 103.81,159.86 C99.98,174.07 100.87,192.29 106.09,206.77 C114.01,228.75 131.72,246.37 154.02,254.45 C158.13,255.94 163.30,257.53 165.50,257.97 ZM 200.20 251.40 C188.61,255.03 172.37,255.04 160.13,251.42 C155.53,250.06 150.81,248.28 149.66,247.47 C148.50,246.66 146.79,246.00 145.86,246.00 C144.93,246.00 144.02,245.66 143.83,245.25 C143.65,244.84 141.51,243.15 139.08,241.50 C132.32,236.90 125.50,230.45 121.33,224.70 C119.26,221.84 117.31,219.27 117.00,219.00 C115.70,217.84 109.99,204.00 108.35,198.00 C105.63,188.08 105.90,169.78 108.92,160.00 C116.98,133.86 134.80,116.23 160.70,108.78 C171.68,105.62 189.17,105.65 200.45,108.85 C232.67,117.99 254.04,146.16 253.98,179.41 C253.96,191.95 252.18,200.58 247.54,210.62 C238.21,230.80 222.37,244.45 200.20,251.40 ZM 174.71 228.37 C175.09,228.76 178.81,228.95 182.96,228.79 L 190.50 228.50 L 190.66 215.00 L 190.83 201.50 L 206.66 200.98 C224.30,200.41 227.49,199.49 233.57,193.22 C238.54,188.11 240.32,181.66 239.80,170.65 C239.30,160.08 237.11,154.71 231.57,150.48 C225.04,145.51 220.64,145.02 181.76,145.01 L 146.01 145.00 L 150.34 151.75 L 154.66 158.50 L 185.58 159.00 C208.07,159.36 217.11,159.85 218.74,160.78 C223.84,163.69 225.45,172.33 222.35,180.10 C220.03,185.89 216.84,187.00 202.53,187.00 L 191.00 187.00 L 191.00 179.00 C191.00,174.60 190.66,171.01 190.25,171.03 C189.84,171.05 186.01,176.27 181.75,182.63 L 174.00 194.21 L 174.00 210.94 C174.00,220.14 174.32,227.98 174.71,228.37 ZM 155.67 228.33 C156.03,228.70 159.16,229.00 162.61,229.00 C171.75,229.00 172.00,228.46 172.00,208.57 L 172.00 192.58 L 181.50 178.32 C186.73,170.48 191.00,163.60 191.00,163.03 C191.00,162.40 187.55,162.00 182.10,162.00 L 173.21 162.00 L 168.53 169.50 C165.96,173.62 163.73,177.00 163.56,177.00 C163.19,177.00 159.56,171.50 153.99,162.50 C151.60,158.65 148.13,153.14 146.27,150.25 L 142.89 145.00 L 123.04 145.00 L 129.27 154.40 C132.70,159.57 139.89,170.34 145.25,178.34 L 155.00 192.89 L 155.00 210.28 C155.00,219.84 155.30,227.97 155.67,228.33 Z" fill="rgb(0,0,0)"/>
<path d="M 190.11 106.94 C180.12,105.87 168.69,106.48 160.70,108.78 C134.80,116.23 116.98,133.86 108.92,160.00 C106.46,167.97 105.82,181.62 107.15,191.76 C106.69,189.77 106.19,187.54 105.62,185.00 C104.83,181.43 104.11,179.62 104.02,181.00 C103.87,183.31 103.79,183.35 103.00,181.50 C102.40,180.11 102.13,181.47 102.11,186.00 C102.09,188.60 102.32,191.29 102.76,194.05 C100.74,182.51 101.04,170.14 103.81,159.86 C111.76,130.28 134.75,109.53 162.91,103.35 C160.50,103.93 159.00,104.59 159.00,105.22 C159.00,105.71 159.56,105.78 160.25,105.37 C160.98,104.93 160.87,105.40 160.00,106.50 C159.13,107.60 159.02,108.07 159.75,107.63 C160.44,107.22 161.00,107.28 161.00,107.77 C161.00,108.26 164.04,108.02 167.75,107.23 C174.26,105.85 182.15,105.82 190.11,106.94 ZM 200.20 251.40 C222.37,244.45 238.21,230.80 247.54,210.62 C252.18,200.58 253.96,191.95 253.98,179.41 C253.99,173.20 253.26,167.16 251.84,161.39 C253.00,165.55 253.92,169.92 254.59,174.50 C255.00,177.25 255.52,178.71 255.74,177.74 C255.97,176.77 256.52,176.20 256.97,176.48 C258.27,177.29 258.74,174.24 258.38,169.78 C258.79,173.14 259.00,176.56 259.00,180.03 C259.00,193.40 256.66,203.14 250.37,216.00 C246.33,224.25 244.39,226.82 235.61,235.56 C227.64,243.50 223.81,246.49 217.50,249.69 C211.92,252.52 207.79,254.32 203.98,255.52 C204.26,254.90 203.33,254.00 201.75,253.98 C199.89,253.97 199.76,253.79 201.00,252.91 C202.12,252.13 201.61,252.02 199.00,252.50 C198.07,252.67 195.89,252.88 193.10,253.09 C195.59,252.66 197.98,252.09 200.20,251.40 ZM 194.07 159.00 C209.64,159.35 217.19,159.89 218.74,160.78 C217.11,159.85 208.07,159.36 185.58,159.00 L 154.66 158.50 L 150.34 151.75 L 146.01 145.00 L 181.76 145.01 C184.29,145.01 186.68,145.02 188.93,145.02 C183.73,145.16 180.18,145.47 180.50,146.00 C180.84,146.55 180.57,147.00 179.89,147.00 C179.22,147.00 178.95,147.28 179.29,147.62 C179.63,147.96 179.36,148.81 178.70,149.51 C176.13,152.23 174.05,155.00 174.58,155.00 C174.89,155.00 174.35,155.79 173.39,156.75 C171.72,158.42 172.70,158.52 194.07,159.00 ZM 149.31 155.03 C147.79,152.84 146.64,151.38 146.26,151.25 C145.66,151.05 144.86,151.93 144.48,153.19 C144.11,154.46 142.45,157.21 140.81,159.30 C139.02,161.58 138.07,163.74 138.44,164.69 C138.97,166.08 138.82,166.10 137.33,164.89 L 137.27 164.84 C136.70,164.38 136.28,164.04 136.19,164.11 C135.94,164.31 138.06,167.49 145.90,179.22 L 146.20 179.68 L 155.00 192.86 L 155.00 192.89 L 145.25 178.34 C139.89,170.34 132.70,159.57 129.27,154.40 L 123.04 145.00 L 142.89 145.00 L 146.27 150.25 C147.06,151.48 148.15,153.18 149.31,155.03 ZM 166.33 102.68 C175.06,101.15 184.25,101.01 193.60,102.42 C189.68,101.85 185.56,101.58 181.00,101.56 C175.91,101.54 170.51,102.00 166.33,102.68 ZM 221.98 113.07 C237.80,122.72 249.23,137.21 254.92,154.35 C248.96,136.89 237.54,122.59 221.98,113.07 ZM 135.16 244.62 C140.56,248.25 146.68,251.49 152.69,253.96 C146.43,251.56 140.55,248.41 135.16,244.62 ZM 104.33 201.17 C106.58,209.19 110.42,217.38 115.33,224.68 C111.51,219.16 108.39,213.15 106.09,206.77 C105.43,204.96 104.85,203.08 104.33,201.17 ZM 237.14 132.35 C229.99,123.83 220.82,116.93 210.10,112.29 C211.84,113.01 213.51,113.79 215.10,114.62 C223.83,119.21 231.18,125.13 237.14,132.35 ZM 174.00 253.88 C170.00,253.82 167.47,253.38 163.39,252.28 C166.76,253.06 170.35,253.59 174.00,253.88 ZM 162.59 175.85 L 161.82 174.88 C160.78,173.57 159.05,170.93 157.97,169.00 C157.74,168.58 157.50,168.15 157.25,167.72 C159.69,171.58 161.53,174.39 162.59,175.85 ZM 234.89 153.65 C238.03,157.47 239.42,162.52 239.80,170.65 C239.44,163.05 237.94,157.57 234.89,153.65 ZM 163.56 177.00 C163.72,177.00 165.92,173.69 168.45,169.63 L 163.70 177.25 L 163.42 176.90 C163.49,176.97 163.54,177.00 163.56,177.00 ZM 110.33 203.98 C111.33,206.68 112.50,209.62 113.59,212.19 C113.49,211.96 113.38,211.73 113.28,211.50 C112.09,208.87 111.20,206.69 110.33,203.98 ZM 223.66 146.67 C226.30,147.29 228.13,148.13 229.88,149.28 C228.09,148.22 226.02,147.36 223.66,146.67 ZM 179.58 258.84 C185.81,258.86 192.06,258.56 194.50,257.94 C196.70,257.38 199.18,256.75 200.00,256.54 C200.43,256.43 200.97,256.32 201.48,256.23 C201.12,256.33 200.76,256.42 200.40,256.50 C199.35,256.74 196.70,257.39 194.50,257.95 C192.05,258.56 185.81,258.86 179.58,258.84 ZM 195.98 102.81 C197.32,103.05 198.66,103.32 200.00,103.62 C201.20,103.89 202.79,104.37 204.55,104.98 C201.72,104.06 198.90,103.35 195.98,102.81 ZM 150.00 247.68 C149.87,247.61 149.76,247.54 149.67,247.48 C148.51,246.67 146.79,246.00 145.86,246.00 C146.79,246.00 148.50,246.66 149.66,247.47 C149.75,247.54 149.86,247.61 150.00,247.68 Z" fill="rgb(134,134,134)"/>
<path d="M 239.50 166.79 C239.64,168.01 239.74,169.30 239.80,170.65 C240.32,181.66 238.54,188.11 233.57,193.22 C227.95,199.01 224.80,200.24 210.43,200.84 C212.97,200.60 213.89,200.25 213.70,199.72 C213.18,198.28 217.11,192.65 221.36,188.75 C223.01,187.24 224.05,186.00 223.68,186.00 C223.31,186.00 223.79,185.19 224.75,184.20 C226.79,182.10 234.46,173.50 237.81,169.56 C238.71,168.51 239.25,167.67 239.50,166.79 ZM 155.67 228.33 C155.30,227.97 155.00,219.84 155.00,210.28 L 155.00 192.86 L 150.84 186.62 L 155.00 192.79 L 155.15 210.64 C155.23,220.46 155.50,227.17 155.74,225.55 C156.12,222.95 162.76,212.02 168.14,205.12 C169.56,203.30 170.00,203.12 170.00,204.37 C170.00,205.26 170.45,206.00 171.00,206.00 C171.57,206.00 172.00,203.10 172.00,199.29 L 172.00 208.57 C172.00,228.46 171.75,229.00 162.61,229.00 C159.16,229.00 156.03,228.70 155.67,228.33 ZM 187.02 158.84 C172.50,158.47 171.93,158.21 173.39,156.75 C174.35,155.79 174.89,155.00 174.58,155.00 C174.05,155.00 176.13,152.23 178.70,149.51 C179.36,148.81 179.63,147.96 179.29,147.62 C178.95,147.28 179.22,147.00 179.89,147.00 C180.57,147.00 180.84,146.55 180.50,146.00 C180.18,145.47 183.73,145.16 188.93,145.02 C192.42,145.03 195.58,145.05 198.45,145.08 C195.74,145.19 194.17,145.45 194.84,145.88 C196.78,147.11 196.75,147.17 192.85,151.00 C190.89,152.93 188.76,155.51 188.11,156.75 ZM 149.31 155.03 C150.89,157.53 152.62,160.29 153.99,162.50 L 154.06 162.62 C152.98,161.04 152.14,160.00 151.88,160.00 C151.45,160.00 149.45,162.81 147.44,166.25 C145.43,169.69 143.39,172.75 142.91,173.05 C142.51,173.30 144.17,176.46 146.78,180.54 L 146.20 179.68 L 145.90 179.22 C138.06,167.49 135.94,164.31 136.19,164.11 C136.28,164.04 136.70,164.38 137.27,164.84 L 137.33 164.89 C138.82,166.10 138.97,166.08 138.44,164.69 C138.07,163.74 139.02,161.58 140.81,159.30 C142.45,157.21 144.11,154.46 144.48,153.19 C144.86,151.93 145.66,151.05 146.26,151.25 C146.64,151.38 147.79,152.84 149.31,155.03 ZM 179.58 258.84 C177.14,258.83 174.71,258.77 172.51,258.66 C172.85,258.47 172.88,258.12 172.69,257.62 C172.39,256.86 172.66,255.74 173.28,255.12 C174.11,254.29 173.72,254.00 171.81,254.00 C170.71,254.00 168.41,253.55 165.68,252.86 C168.54,253.54 170.80,253.83 174.00,253.88 C180.44,254.38 187.09,254.12 193.10,253.09 C195.89,252.88 198.07,252.67 199.00,252.50 C201.61,252.02 202.12,252.13 201.00,252.91 C199.76,253.79 199.89,253.97 201.75,253.98 C203.33,254.00 204.26,254.90 203.98,255.52 C203.14,255.78 202.31,256.02 201.48,256.23 C200.97,256.32 200.43,256.43 200.00,256.54 C199.18,256.75 196.70,257.38 194.50,257.94 C192.06,258.56 185.84,258.86 179.62,258.84 ZM 190.11 106.94 C182.15,105.82 174.26,105.85 167.75,107.23 C164.04,108.02 161.00,108.26 161.00,107.77 C161.00,107.28 160.44,107.22 159.75,107.63 C159.02,108.07 159.13,107.60 160.00,106.50 C160.87,105.40 160.98,104.93 160.25,105.37 C159.56,105.78 159.00,105.71 159.00,105.22 C159.00,104.59 160.50,103.93 162.91,103.35 C164.04,103.11 165.18,102.88 166.33,102.68 C170.51,102.00 175.91,101.54 181.00,101.56 C184.30,101.57 187.37,101.72 190.30,102.01 C187.57,101.93 186.38,102.59 186.28,104.00 C186.18,105.32 186.86,106.13 188.31,106.40 C189.79,106.67 191.22,106.95 192.60,107.25 C191.78,107.13 190.95,107.03 190.11,106.94 ZM 247.12 147.97 C248.98,151.73 250.87,154.57 251.32,154.30 C251.77,154.02 251.89,153.14 251.58,152.35 C251.27,151.55 251.44,151.15 251.94,151.46 C255.59,153.72 251.09,143.50 244.34,133.75 C248.80,139.95 252.36,146.86 254.92,154.35 C256.56,159.29 257.72,164.45 258.38,169.78 C258.74,174.24 258.27,177.29 256.97,176.48 C256.52,176.20 255.97,176.77 255.74,177.74 C255.52,178.71 255.00,177.25 254.59,174.50 C253.92,169.92 253.00,165.55 251.84,161.39 C250.66,156.57 249.00,151.94 246.90,147.55 C246.98,147.69 247.05,147.83 247.12,147.97 ZM 104.33 201.17 C103.70,198.85 103.18,196.47 102.76,194.05 C102.32,191.29 102.09,188.60 102.11,186.00 C102.13,181.47 102.40,180.11 103.00,181.50 C103.79,183.35 103.87,183.31 104.02,181.00 C104.11,179.62 104.83,181.43 105.62,185.00 C106.19,187.54 106.69,189.77 107.15,191.76 C107.45,194.05 107.85,196.17 108.35,198.00 C108.68,199.19 109.16,200.68 109.74,202.33 C109.56,202.13 109.29,202.00 109.00,202.00 C108.45,202.00 108.00,202.45 108.00,203.00 C108.00,203.55 108.45,204.00 109.00,204.00 C109.53,204.00 109.97,203.58 110.00,203.06 C110.11,203.36 110.22,203.67 110.33,203.98 C111.05,206.21 111.78,208.08 112.67,210.14 C110.02,204.85 107.38,202.86 106.34,205.56 C106.16,206.02 106.27,206.86 106.61,207.99 C105.73,205.72 104.97,203.44 104.33,201.17 ZM 216.91 160.26 C213.62,159.67 206.38,159.28 194.21,159.00 L 199.71 159.01 C206.75,159.01 214.21,159.49 216.30,160.07 C216.51,160.12 216.71,160.19 216.91,160.26 ZM 135.16 244.62 C127.42,239.18 120.69,232.41 115.33,224.68 C113.70,222.25 112.19,219.73 110.81,217.15 C112.83,220.78 115.31,224.67 117.77,227.89 C123.37,235.21 130.58,241.69 138.61,246.83 C137.43,246.11 136.28,245.38 135.16,244.62 ZM 234.89 153.65 C235.51,154.44 236.07,155.30 236.56,156.24 C233.78,151.62 229.41,148.38 223.61,146.66 L 223.66 146.67 C226.02,147.36 228.09,148.22 229.88,149.28 C230.44,149.65 231.00,150.05 231.57,150.48 C232.85,151.46 233.95,152.50 234.89,153.65 ZM 221.98 113.07 C226.44,115.80 230.56,118.92 234.31,122.40 C229.05,117.66 222.80,113.34 216.36,109.94 C218.29,110.92 220.16,111.97 221.98,113.07 ZM 223.23 167.01 C224.45,170.68 224.25,175.34 222.35,180.10 C224.14,175.60 224.36,170.81 223.23,167.01 ZM 218.40 116.46 C221.56,118.28 224.55,120.35 227.50,122.73 C228.57,123.58 229.65,124.54 230.73,125.58 C227.02,122.16 222.91,119.12 218.40,116.46 ZM 156.79 166.98 C156.94,167.23 157.10,167.48 157.25,167.72 C157.36,167.91 157.47,168.10 157.57,168.29 C157.31,167.86 157.04,167.42 156.79,166.98 ZM 116.95 218.95 C116.97,218.97 116.99,218.99 117.00,219.00 C117.31,219.27 119.26,221.84 121.33,224.70 C119.26,221.84 117.31,219.27 117.00,219.00 C116.99,218.99 116.97,218.97 116.95,218.95 ZM 150.00 247.68 C150.26,247.83 150.61,248.00 151.02,248.19 C150.56,247.98 150.17,247.79 149.89,247.62 C149.92,247.64 149.96,247.66 150.00,247.68 Z" fill="rgb(161,161,161)"/>
<path d="M 239.50 166.79 C239.25,167.67 238.71,168.51 237.81,169.56 C234.46,173.50 226.79,182.10 224.75,184.20 C223.79,185.19 223.31,186.00 223.68,186.00 C224.05,186.00 223.01,187.24 221.36,188.75 C217.11,192.65 213.18,198.28 213.70,199.72 C213.89,200.25 212.97,200.60 210.43,200.84 C209.25,200.89 208.00,200.94 206.66,200.98 L 190.83 201.50 L 190.78 205.33 L 190.62 201.50 L 195.38 201.19 C198.39,201.00 199.99,200.47 199.75,199.74 C199.02,197.56 207.83,188.37 211.29,187.70 C212.50,187.47 208.44,187.21 202.25,187.14 L 191.00 187.00 L 202.53 187.00 C216.84,187.00 220.03,185.89 222.35,180.10 C224.25,175.34 224.45,170.68 223.23,167.01 C222.86,165.74 222.33,164.58 221.66,163.57 C223.20,165.33 224.00,167.63 224.13,170.50 C224.26,173.21 224.32,173.26 224.72,171.00 C224.96,169.62 227.16,166.45 229.60,163.94 C232.05,161.43 233.78,159.12 233.46,158.79 C233.13,158.47 233.64,158.27 234.58,158.35 C235.52,158.43 236.48,157.94 236.73,157.25 C236.79,157.05 236.82,156.87 236.80,156.70 C238.17,159.45 239.04,162.78 239.50,166.79 ZM 155.09 202.67 C155.14,208.88 155.45,211.57 155.94,209.98 C156.36,208.59 159.36,203.26 162.60,198.13 C168.55,188.73 169.47,187.29 178.46,173.25 C184.22,164.26 184.97,163.39 187.57,162.72 C188.63,162.45 185.83,162.18 181.35,162.12 L 173.21 162.00 L 182.10 162.00 C187.55,162.00 191.00,162.40 191.00,163.03 C191.00,163.60 186.73,170.48 181.50,178.32 L 172.00 192.58 L 172.00 199.29 C172.00,203.10 171.57,206.00 171.00,206.00 C170.45,206.00 170.00,205.26 170.00,204.37 C170.00,203.12 169.56,203.30 168.14,205.12 C162.76,212.02 156.12,222.95 155.74,225.55 C155.50,227.17 155.23,220.46 155.15,210.64 L 155.07 200.84 C155.07,201.41 155.08,202.02 155.09,202.67 ZM 194.07 159.00 C191.41,158.94 189.07,158.89 187.02,158.84 L 188.11 156.75 C188.76,155.51 190.89,152.93 192.85,151.00 C196.75,147.17 196.78,147.11 194.84,145.88 C194.17,145.45 195.74,145.19 198.45,145.08 C201.59,145.11 204.38,145.15 206.87,145.22 C206.35,145.34 206.19,145.52 206.53,145.77 C208.29,147.01 207.65,148.65 203.75,152.86 C201.69,155.09 200.00,157.38 200.00,157.96 C200.00,158.57 202.58,159.00 206.25,159.01 C209.24,159.01 211.82,159.23 214.03,159.68 C210.74,159.29 205.10,159.01 199.71,159.01 L 194.21 159.00 ZM 176.71 228.74 C176.89,228.58 177.00,228.33 177.00,228.00 C177.00,227.45 176.55,227.00 176.01,227.00 C175.46,227.00 175.87,225.99 176.91,224.75 C184.53,215.69 187.00,212.98 187.02,213.69 C187.02,214.14 187.47,213.82 188.00,213.00 C188.65,212.00 188.97,211.92 188.98,212.75 C188.99,213.44 189.48,214.00 190.07,214.00 C190.34,214.00 190.54,213.64 190.69,212.96 L 190.66 215.00 L 190.50 228.50 L 182.96 228.79 C180.53,228.88 178.26,228.86 176.71,228.74 ZM 152.91 189.69 L 150.84 186.62 L 146.78 180.54 C144.17,176.46 142.51,173.30 142.91,173.05 C143.39,172.75 145.43,169.69 147.44,166.25 C149.45,162.81 151.45,160.00 151.88,160.00 C152.14,160.00 152.98,161.04 154.06,162.62 C154.85,163.89 155.60,165.09 156.30,166.22 C155.62,165.85 155.06,166.63 154.57,168.58 C154.21,170.00 152.81,172.92 151.46,175.06 C150.11,177.21 149.00,179.45 149.00,180.04 C149.00,180.63 148.54,180.84 147.98,180.49 C147.42,180.14 147.27,179.37 147.64,178.78 C148.05,178.11 147.84,177.98 147.11,178.43 C146.38,178.88 146.25,179.64 146.77,180.34 C147.25,180.98 149.29,184.05 151.32,187.17 C151.95,188.14 152.47,188.96 152.91,189.69 ZM 165.50 257.97 C163.30,257.53 158.13,255.94 154.02,254.45 C153.57,254.29 153.13,254.13 152.69,253.96 C152.20,253.76 151.71,253.55 151.22,253.34 C152.25,253.69 153.07,253.88 153.50,253.86 C155.28,253.78 155.30,253.72 153.68,253.30 C151.98,252.86 151.97,252.74 153.56,251.58 C154.99,250.54 154.83,250.15 151.70,248.49 C153.78,249.36 156.98,250.49 160.13,251.42 C161.19,251.73 162.28,252.02 163.39,252.28 C164.21,252.50 164.96,252.69 165.68,252.86 L 165.68 252.86 C168.41,253.55 170.71,254.00 171.81,254.00 C173.72,254.00 174.11,254.29 173.28,255.12 C172.66,255.74 172.39,256.86 172.69,257.62 C172.88,258.12 172.85,258.47 172.51,258.66 C169.58,258.52 167.07,258.29 165.50,257.97 ZM 237.14 132.35 C235.16,129.95 233.02,127.69 230.73,125.58 C230.53,125.39 230.33,125.20 230.13,125.01 C232.18,126.81 234.05,128.66 235.65,130.51 C240.05,135.62 240.48,135.87 242.14,134.38 C243.13,133.47 243.52,133.01 243.03,131.99 C243.47,132.57 243.91,133.16 244.34,133.75 C244.53,134.02 244.72,134.30 244.90,134.57 C244.14,134.05 243.14,134.54 242.20,136.06 C241.02,137.94 241.08,138.03 242.82,137.09 C243.88,136.53 245.08,136.39 245.51,136.79 C245.93,137.18 246.07,136.85 245.82,136.06 C245.80,135.99 245.78,135.92 245.75,135.85 C251.69,144.90 255.33,153.56 251.94,151.46 C251.44,151.15 251.27,151.55 251.58,152.35 C251.89,153.14 251.77,154.02 251.32,154.30 C250.87,154.57 248.98,151.73 247.12,147.97 C247.05,147.83 246.98,147.69 246.90,147.55 C244.30,142.07 241.02,136.98 237.14,132.35 ZM 116.95 218.95 C116.97,218.97 116.99,218.99 117.00,219.00 C117.31,219.27 119.26,221.84 121.33,224.70 C121.80,225.35 122.30,226.00 122.83,226.66 C125.53,229.78 127.55,231.95 129.52,233.81 C129.79,234.06 130.06,234.30 130.33,234.55 C132.04,236.11 133.79,237.49 136.00,239.14 C137.44,240.20 138.85,241.27 140.08,242.19 C141.34,243.08 142.44,243.92 143.12,244.52 C143.39,244.73 143.59,244.89 143.71,244.98 C144.37,245.54 145.37,246.00 145.93,246.00 C145.95,246.00 145.97,246.00 146.00,246.00 C145.96,246.00 145.91,246.00 145.87,246.00 L 145.86 246.00 L 145.86 246.00 C144.93,246.00 144.02,245.66 143.83,245.25 C143.78,245.12 143.52,244.86 143.12,244.52 C142.46,244.00 141.38,243.17 140.08,242.19 C139.76,241.96 139.42,241.73 139.08,241.50 C136.10,239.47 133.10,237.08 130.33,234.55 C130.06,234.31 129.79,234.06 129.52,233.81 C127.03,231.47 124.74,229.03 122.83,226.66 C121.87,225.55 120.82,224.32 119.65,222.93 C116.95,219.74 116.72,219.66 115.44,221.42 C114.72,222.40 114.56,223.11 115.44,224.66 C113.78,222.23 112.19,219.63 110.81,217.15 C109.22,214.16 107.80,211.09 106.61,207.99 C106.27,206.86 106.16,206.02 106.34,205.56 C107.38,202.86 110.02,204.85 112.67,210.14 C112.87,210.58 113.07,211.03 113.28,211.50 C113.38,211.73 113.49,211.96 113.59,212.19 C115.05,215.60 116.37,218.34 116.95,218.95 ZM 195.98 102.81 C198.90,103.35 201.72,104.06 204.55,104.98 C206.24,105.57 208.09,106.27 209.93,107.03 C207.94,106.37 206.24,106.05 204.96,106.17 C201.50,106.50 200.67,107.90 203.17,109.18 C203.68,109.43 205.59,110.32 207.98,111.40 C205.54,110.44 203.03,109.58 200.45,108.85 C198.07,108.17 195.42,107.64 192.60,107.25 C191.22,106.95 189.79,106.67 188.31,106.40 C186.86,106.13 186.18,105.32 186.28,104.00 C186.38,102.59 187.57,101.93 190.30,102.01 C191.42,102.13 192.51,102.26 193.59,102.42 L 193.60 102.42 C194.39,102.54 195.19,102.67 195.98,102.81 ZM 234.77 153.72 C235.41,154.48 235.99,155.29 236.51,156.15 C236.38,156.05 236.22,156.00 236.02,156.00 C235.38,156.00 235.21,156.54 235.63,157.25 C236.14,158.10 235.84,158.06 234.69,157.13 C232.91,155.69 232.48,154.83 233.75,155.25 C234.16,155.39 234.66,155.05 234.86,154.50 C234.94,154.28 234.91,154.02 234.77,153.72 ZM 109.74 202.33 C109.82,202.57 109.91,202.81 110.00,203.06 C109.97,203.58 109.53,204.00 109.00,204.00 C108.45,204.00 108.00,203.55 108.00,203.00 C108.00,202.45 108.45,202.00 109.00,202.00 C109.29,202.00 109.56,202.13 109.74,202.33 ZM 204.73 107.40 C205.06,107.73 204.47,107.96 203.42,107.92 C202.25,107.87 202.01,107.64 202.81,107.32 C203.53,107.03 204.40,107.06 204.73,107.40 ZM 223.58 146.65 L 223.61 146.66 C226.55,147.53 229.11,148.79 231.29,150.42 C229.09,148.93 226.20,147.46 223.58,146.65 ZM 149.53 247.39 C147.92,246.62 146.51,246.06 146.00,246.00 C146.92,246.06 148.43,246.66 149.53,247.39 ZM 158.45 169.83 C159.36,171.36 160.51,173.12 161.38,174.30 C160.38,173.07 159.22,171.27 158.45,169.83 ZM 174.71 228.37 C174.71,228.37 174.71,228.38 174.72,228.39 C174.71,228.38 174.71,228.38 174.71,228.37 Z" fill="rgb(182,182,182)"/>
<path d="M 174.07 204.02 C173.98,209.51 174.20,214.00 174.57,214.00 C175.43,214.00 190.00,199.04 190.00,198.16 C190.02,196.45 198.79,188.13 201.00,187.73 C202.38,187.48 200.69,187.21 197.25,187.14 L 191.00 187.00 L 202.25 187.14 C208.44,187.21 212.50,187.47 211.29,187.70 C207.83,188.37 199.02,197.56 199.75,199.74 C199.99,200.47 198.39,201.00 195.38,201.19 L 190.62 201.50 L 190.78 205.33 L 190.69 212.96 C190.54,213.64 190.34,214.00 190.07,214.00 C189.48,214.00 188.99,213.44 188.98,212.75 C188.97,211.92 188.65,212.00 188.00,213.00 C187.47,213.82 187.02,214.14 187.02,213.69 C187.00,212.98 184.53,215.69 176.91,224.75 C175.87,225.99 175.46,227.00 176.01,227.00 C176.55,227.00 177.00,227.45 177.00,228.00 C177.00,228.33 176.89,228.58 176.71,228.74 C175.63,228.66 174.91,228.54 174.72,228.39 C174.71,228.38 174.71,228.37 174.70,228.37 C174.31,227.91 174.00,220.09 174.00,210.94 L 174.00 194.21 L 181.75 182.63 C184.63,178.33 187.32,174.55 188.88,172.54 C188.79,173.52 188.74,175.10 188.65,177.68 C188.55,180.53 188.06,183.23 187.57,183.68 C187.06,184.15 186.98,183.86 187.38,183.00 C187.76,182.18 187.50,182.40 186.79,183.50 C184.34,187.30 176.10,195.18 175.17,194.61 C174.63,194.27 174.17,198.17 174.07,204.02 ZM 155.09 202.67 C155.08,202.02 155.07,201.41 155.07,200.84 L 155.07 200.84 L 155.02 195.66 C155.09,196.05 155.12,196.40 155.14,196.73 C155.23,199.27 155.42,199.73 155.72,198.14 C155.97,196.84 158.16,192.87 160.58,189.32 C163.01,185.78 165.00,182.43 165.00,181.88 C165.00,181.33 165.44,181.16 165.99,181.49 C166.53,181.83 166.73,181.47 166.44,180.70 C166.14,179.92 167.45,177.26 169.34,174.78 C171.23,172.30 173.09,169.30 173.46,168.12 C173.84,166.94 174.53,166.21 175.00,166.50 C175.47,166.79 176.13,166.15 176.48,165.08 C176.82,164.00 178.09,162.93 179.30,162.70 C180.51,162.46 179.63,162.21 177.35,162.14 C173.27,162.00 173.19,162.04 168.56,169.46 L 173.21 162.00 L 181.35 162.12 C185.83,162.18 188.63,162.45 187.57,162.72 C184.97,163.39 184.22,164.26 178.46,173.25 C169.47,187.29 168.55,188.73 162.60,198.13 C159.36,203.26 156.36,208.59 155.94,209.98 C155.45,211.57 155.14,208.88 155.09,202.67 ZM 214.84 159.79 C214.59,159.75 214.32,159.72 214.03,159.68 C211.82,159.23 209.24,159.01 206.25,159.01 C202.58,159.00 200.00,158.57 200.00,157.96 C200.00,157.38 201.69,155.09 203.75,152.86 C207.65,148.65 208.29,147.01 206.53,145.77 C206.19,145.52 206.35,145.34 206.87,145.22 C212.55,145.36 216.70,145.61 219.88,146.02 C218.05,145.94 217.23,146.44 217.64,147.50 C217.95,148.32 217.69,149.00 217.05,149.00 C216.41,149.00 216.16,149.45 216.50,150.00 C216.84,150.55 216.53,151.02 215.81,151.04 C215.09,151.06 213.24,152.73 211.70,154.76 L 208.91 158.44 L 214.03 159.59 C214.30,159.66 214.57,159.72 214.84,159.79 ZM 234.77 153.72 C234.91,154.02 234.94,154.28 234.86,154.50 C234.66,155.05 234.16,155.39 233.75,155.25 C232.48,154.83 232.91,155.69 234.69,157.13 C235.84,158.06 236.14,158.10 235.63,157.25 C235.21,156.54 235.38,156.00 236.02,156.00 C236.22,156.00 236.38,156.05 236.51,156.15 C236.53,156.18 236.54,156.21 236.56,156.24 C236.64,156.39 236.72,156.54 236.80,156.70 C236.82,156.87 236.79,157.05 236.73,157.25 C236.48,157.94 235.52,158.43 234.58,158.35 C233.64,158.27 233.13,158.47 233.46,158.79 C233.78,159.12 232.05,161.43 229.60,163.94 C227.16,166.45 224.96,169.62 224.72,171.00 C224.32,173.26 224.26,173.21 224.13,170.50 C224.00,167.63 223.20,165.33 221.66,163.57 C221.16,162.82 220.57,162.15 219.91,161.60 C220.06,161.69 220.18,161.78 220.26,161.86 C221.36,162.96 222.50,162.55 222.50,161.06 C222.50,160.64 224.36,158.21 226.64,155.66 C230.18,151.71 230.97,151.25 232.01,152.52 C232.69,153.33 233.75,153.98 234.37,153.96 C234.65,153.95 234.75,153.84 234.72,153.65 C234.74,153.67 234.76,153.70 234.77,153.72 ZM 156.79 166.98 C157.04,167.42 157.31,167.86 157.57,168.29 C157.71,168.53 157.84,168.76 157.97,169.00 C158.12,169.27 158.28,169.55 158.45,169.83 C159.11,171.06 160.05,172.55 160.93,173.72 C159.71,172.67 158.66,172.63 159.63,174.25 C160.07,174.98 159.60,174.87 158.50,174.00 C157.46,173.18 156.91,173.00 157.28,173.60 C157.94,174.72 153.12,183.19 151.12,184.43 C150.41,184.87 150.89,186.45 152.52,189.03 C152.65,189.24 152.78,189.46 152.91,189.69 C152.47,188.96 151.95,188.14 151.32,187.17 C149.29,184.05 147.25,180.98 146.77,180.34 C146.25,179.64 146.38,178.88 147.11,178.43 C147.84,177.98 148.05,178.11 147.64,178.78 C147.27,179.37 147.42,180.14 147.98,180.49 C148.54,180.84 149.00,180.63 149.00,180.04 C149.00,179.45 150.11,177.21 151.46,175.06 C152.81,172.92 154.21,170.00 154.57,168.58 C155.06,166.63 155.62,165.85 156.30,166.22 C156.47,166.48 156.63,166.73 156.79,166.98 ZM 218.40 116.46 C217.33,115.83 216.22,115.21 215.10,114.62 C213.51,113.79 211.84,113.01 210.10,112.29 C209.40,111.98 208.69,111.69 207.98,111.40 C205.59,110.32 203.68,109.43 203.17,109.18 C200.67,107.90 201.50,106.50 204.96,106.17 C206.24,106.05 207.94,106.37 209.93,107.03 C211.88,107.83 213.81,108.68 215.50,109.52 C215.79,109.66 216.07,109.80 216.36,109.94 C218.08,110.85 219.78,111.82 221.46,112.85 C221.28,112.77 221.10,112.69 220.94,112.62 C218.17,111.46 217.14,111.42 215.80,112.41 C214.54,113.33 214.86,114.00 219.00,116.81 C218.80,116.69 218.60,116.57 218.40,116.46 ZM 130.33 234.55 L 130.40 234.62 C131.78,235.87 133.21,237.09 134.67,238.25 C132.17,236.33 129.59,234.13 128.38,232.87 C125.68,230.06 123.21,228.92 124.57,231.11 C124.95,231.72 124.65,232.60 123.92,233.05 C123.33,233.42 123.10,233.76 123.28,234.29 C121.31,232.24 119.47,230.11 117.77,227.89 C116.99,226.87 116.21,225.78 115.44,224.66 C114.56,223.11 114.72,222.40 115.44,221.42 C116.72,219.66 116.95,219.74 119.65,222.93 C120.82,224.32 121.87,225.55 122.83,226.66 C124.88,229.19 127.11,231.54 129.52,233.81 C129.79,234.06 130.06,234.31 130.33,234.55 ZM 149.53 247.39 C149.58,247.42 149.63,247.45 149.67,247.48 C149.73,247.53 149.81,247.57 149.89,247.62 L 149.89 247.62 C150.18,247.79 150.56,247.98 151.02,248.19 L 151.02 248.19 C151.23,248.28 151.46,248.38 151.70,248.49 C154.83,250.15 154.99,250.54 153.56,251.58 C151.97,252.74 151.98,252.86 153.68,253.30 C155.30,253.72 155.28,253.78 153.50,253.86 C153.07,253.88 152.25,253.69 151.22,253.34 C147.55,251.76 143.86,249.91 140.35,247.87 C140.40,247.83 140.46,247.79 140.53,247.72 C142.56,245.88 141.85,243.82 138.03,240.77 C138.38,241.02 138.73,241.26 139.08,241.50 C139.42,241.73 139.76,241.96 140.08,242.19 C141.38,243.17 142.46,244.00 143.12,244.52 L 143.14 244.53 C143.53,244.87 143.78,245.12 143.83,245.25 C144.02,245.66 144.93,246.00 145.86,246.00 L 145.86 246.00 L 145.87 246.00 C145.90,246.00 145.93,246.00 145.96,246.00 C145.97,246.00 145.99,246.00 146.00,246.00 L 146.00 246.00 C146.51,246.06 147.92,246.62 149.53,247.39 ZM 232.15 126.66 C235.63,130.25 237.50,131.31 234.50,128.00 C233.38,126.76 233.15,126.00 233.90,126.00 C234.57,126.00 234.84,125.55 234.50,125.00 C234.16,124.45 234.47,123.98 235.19,123.96 C235.53,123.95 235.56,123.75 235.36,123.39 C238.14,126.06 240.70,128.93 243.03,131.99 C243.52,133.01 243.13,133.47 242.14,134.38 C240.48,135.87 240.05,135.62 235.65,130.51 C234.05,128.66 232.18,126.81 230.13,125.01 C229.27,124.21 228.41,123.47 227.57,122.78 C229.55,124.30 231.24,125.72 232.15,126.66 ZM 242.20 136.06 C243.14,134.54 244.14,134.05 244.90,134.57 C245.19,135.00 245.47,135.42 245.75,135.85 C245.78,135.92 245.80,135.99 245.82,136.06 C246.07,136.85 245.93,137.18 245.51,136.79 C245.08,136.39 243.88,136.53 242.82,137.09 C241.08,138.03 241.02,137.94 242.20,136.06 ZM 184.97 178.06 C184.08,179.72 184.25,179.99 186.21,179.92 C187.47,179.88 187.94,179.62 187.26,179.34 C186.33,178.96 186.29,178.33 187.11,176.80 C187.90,175.32 187.90,174.95 187.11,175.44 C186.50,175.81 185.54,176.99 184.97,178.06 ZM 140.50 247.08 C140.32,247.39 140.22,247.63 140.18,247.77 C139.65,247.46 139.13,247.15 138.61,246.83 C137.24,245.95 135.89,245.03 134.57,244.08 C137.00,245.60 139.02,246.54 139.70,246.28 C140.90,245.82 141.11,246.03 140.50,247.08 ZM 204.73 107.40 C204.40,107.06 203.53,107.03 202.81,107.32 C202.01,107.64 202.25,107.87 203.42,107.92 C204.47,107.96 205.06,107.73 204.73,107.40 ZM 190.15 171.08 C190.20,171.05 190.23,171.03 190.25,171.03 C190.66,171.01 191.00,174.60 191.00,179.00 C191.00,174.75 190.65,171.61 190.15,171.08 ZM 231.69 150.72 C231.44,150.54 231.18,150.36 230.92,150.17 C231.05,150.25 231.17,150.34 231.29,150.42 C231.43,150.52 231.56,150.62 231.69,150.72 Z" fill="rgb(198,198,198)"/>
<path d="M 140.50 247.08 C141.11,246.03 140.90,245.82 139.70,246.28 C138.07,246.91 128.57,240.50 124.53,236.04 C122.97,234.31 122.85,233.71 123.92,233.05 C124.65,232.60 124.95,231.72 124.57,231.11 C123.21,228.92 125.68,230.06 128.38,232.87 C129.89,234.45 133.55,237.49 136.51,239.62 C141.64,243.32 142.80,245.66 140.53,247.72 C140.06,248.15 140.05,247.86 140.50,247.08 ZM 174.07 204.02 C174.17,198.17 174.63,194.27 175.17,194.61 C176.10,195.18 184.34,187.30 186.79,183.50 C187.50,182.40 187.76,182.18 187.38,183.00 C186.98,183.86 187.06,184.15 187.57,183.68 C188.06,183.23 188.55,180.53 188.65,177.68 C188.89,170.83 188.85,171.00 190.00,171.00 C190.58,171.00 191.00,174.33 191.00,179.00 L 191.00 187.00 L 197.25 187.14 C200.69,187.21 202.38,187.48 201.00,187.73 C198.79,188.13 190.02,196.45 190.00,198.16 C190.00,199.04 175.43,214.00 174.57,214.00 C174.20,214.00 173.98,209.51 174.07,204.02 ZM 155.14 196.73 C155.06,194.64 153.89,191.20 152.52,189.03 C150.89,186.45 150.41,184.87 151.12,184.43 C153.12,183.19 157.94,174.72 157.28,173.60 C156.91,173.00 157.46,173.18 158.50,174.00 C159.60,174.87 160.07,174.98 159.63,174.25 C158.31,172.05 160.70,172.91 162.20,175.17 C163.60,177.28 163.79,177.11 168.42,169.67 C173.18,162.04 173.23,162.00 177.35,162.14 C179.63,162.21 180.51,162.46 179.30,162.70 C178.09,162.93 176.82,164.00 176.48,165.08 C176.13,166.15 175.47,166.79 175.00,166.50 C174.53,166.21 173.84,166.94 173.46,168.12 C173.09,169.30 171.23,172.30 169.34,174.78 C167.45,177.26 166.14,179.92 166.44,180.70 C166.73,181.47 166.53,181.83 165.99,181.49 C165.44,181.16 165.00,181.33 165.00,181.88 C165.00,182.43 163.01,185.78 160.58,189.32 C158.16,192.87 155.97,196.84 155.72,198.14 C155.42,199.73 155.23,199.27 155.14,196.73 ZM 184.97 178.06 C185.54,176.99 186.50,175.81 187.11,175.44 C187.90,174.95 187.90,175.32 187.11,176.80 C186.29,178.33 186.33,178.96 187.26,179.34 C187.94,179.62 187.47,179.88 186.21,179.92 C184.25,179.99 184.08,179.72 184.97,178.06 ZM 220.26 161.86 C219.65,161.25 216.84,160.23 214.03,159.59 L 208.91 158.44 L 211.70 154.76 C213.24,152.73 215.09,151.06 215.81,151.04 C216.53,151.02 216.84,150.55 216.50,150.00 C216.16,149.45 216.41,149.00 217.05,149.00 C217.69,149.00 217.95,148.32 217.64,147.50 C216.95,145.71 219.73,145.52 225.02,146.99 C228.55,147.97 236.48,153.88 234.37,153.96 C233.75,153.98 232.69,153.33 232.01,152.52 C230.97,151.25 230.18,151.71 226.64,155.66 C224.36,158.21 222.50,160.64 222.50,161.06 C222.50,162.55 221.36,162.96 220.26,161.86 ZM 232.15 126.66 C230.37,124.82 225.59,121.14 221.52,118.48 C215.02,114.23 214.32,113.49 215.80,112.41 C217.14,111.42 218.17,111.46 220.94,112.62 C225.91,114.70 237.47,123.90 235.19,123.96 C234.47,123.98 234.16,124.45 234.50,125.00 C234.84,125.55 234.57,126.00 233.90,126.00 C233.15,126.00 233.38,126.76 234.50,128.00 C237.50,131.31 235.63,130.25 232.15,126.66 Z" fill="rgb(211,211,211)"/>
</g>
</svg>